# xmcd
#
# Track frame offsets: 
#        150
#        12500
#        24655
#        35775
#        47535
#        58070
#        71225
#        83765
#        95835
#        108475
#        122750
#        134085
#        145615
#        158960
#        172075
#        183230
#        195445
#        208795
#        220580
#        235110
#
# Disc length: 3331 seconds
#
# Revision: 0
# Processed by: cddbd v1.5.2PL0 Copyright (c) Steve Scherf et al.
# Submitted via: ExactAudioCopy v0.99pb4
#
DISCID=290d0114
DTITLE=Eddy Arnold - The Man From Tennessee [CD 2)
DYEAR=2008
DGENRE=Country
TTITLE0=When My Blue Moon Turns To Gold Again
TTITLE1=Beautiful Isle of Somewhere
TTITLE2=A Full Time Job
TTITLE3=Roll Along Kentucky Moon
TTITLE4=Cuddle Buggin' Baby
TTITLE5=Then I Turned and Walked Slowly Away
TTITLE6=Each Minute Seems A Million Years
TTITLE7=I Couldn't Believe It Was True
TTITLE8=What Is Life Without You?
TTITLE9=That's How Much I Love You
TTITLE10=Little Angel With The Dirty Face
TTITLE11=A Heart Full of Love (For A Handful of Kisses)
TTITLE12=What A Fool I Was
TTITLE13=To A Fool I Was
TTITLE14=(I'll Have To) Live And Learn
TTITLE15=The Prisoner's Song
TTITLE16=(In The) Hills Of Tomorrow
TTITLE17=It Makes No Difference Now
TTITLE18=Rockin' Alone (In An Old Rockin' Chair)
TTITLE19=Will The Circle Be Unbroken (My Family Circle)
EXTD=
EXTT0=
EXTT1=
EXTT2=
EXTT3=
EXTT4=
EXTT5=
EXTT6=
EXTT7=
EXTT8=
EXTT9=
EXTT10=
EXTT11=
EXTT12=
EXTT13=
EXTT14=
EXTT15=
EXTT16=
EXTT17=
EXTT18=
EXTT19=
PLAYORDER=
